<svg width="187" height="22" viewBox="0 0 187 22" fill="none" xmlns="http://www.w3.org/2000/svg">
<g id="Link - Century 21 &#226;&#134;&#146; SVG">
<path id="Vector" fill-rule="evenodd" clip-rule="evenodd" d="M100.612 12.408C100.612 13.6461 100.12 14.8336 99.2442 15.7091C98.3687 16.5846 97.1813 17.0764 95.9431 17.0764C94.705 17.0764 93.5176 16.5846 92.6421 15.7091C91.7666 14.8336 91.2747 13.6461 91.2747 12.408V0H87.2531V12.408C87.2531 14.7127 88.1687 16.9231 89.7984 18.5528C91.4281 20.1824 93.6384 21.098 95.9431 21.098C98.2479 21.098 100.458 20.1824 102.088 18.5528C103.718 16.9231 104.633 14.7127 104.633 12.408V0H100.612V12.408ZM6.08303 5.8047C7.29206 4.6673 8.89038 4.03548 10.5503 4.03875C12.2103 4.04202 13.8061 4.68015 15.0106 5.8223L17.3195 2.4948C15.7814 1.20787 13.9079 0.386673 11.9192 0.127695C9.93052 -0.131284 7.90921 0.182716 6.0928 1.0328C4.27638 1.88288 2.74032 3.23374 1.6651 4.92663C0.589879 6.61953 0.0201648 8.58415 0.022898 10.5896C0.0256312 12.5951 0.600699 14.5582 1.68053 16.2481C2.76036 17.9381 4.3001 19.2848 6.11883 20.1299C7.93755 20.975 9.95971 21.2835 11.9477 21.0191C13.9357 20.7547 15.8069 19.9284 17.3415 18.6373L15.0337 15.2933C13.7755 16.4802 12.0972 17.1187 10.3682 17.0683C8.63918 17.0178 7.00101 16.2826 5.81408 15.0244C4.62714 13.7661 3.98866 12.0878 4.0391 10.3588C4.08954 8.6298 4.82476 6.99164 6.08303 5.8047ZM56.0043 14.1735L46.1758 0H42.1531V21.1002H46.1758V6.9245L56.0043 21.1002H60.027V0H56.0043V14.1735ZM65.3906 4.0227H71.6199V21.1002H75.6426V4.0227H81.8719V0H65.3906V4.0227ZM176.519 4.0227H178.708V21.1002H182.749V0H176.519V4.0227ZM22.7183 21.1002H36.7719V17.0764H26.741V12.5609H34.804V8.5382H26.741V4.0227H36.773V0H22.7183V21.1002ZM119.13 0H110.015V21.1002H114.038V14.1735H116.618L121.418 21.098H126.205L121.198 13.849C122.646 13.4023 123.913 12.5041 124.814 11.2857C125.715 10.0673 126.202 8.59268 126.205 7.0774H126.222C126.213 5.20056 125.463 3.40329 124.134 2.07749C122.806 0.751694 121.007 0.00491586 119.13 0ZM119.13 10.1332H114.037V4.0227H119.13C119.94 4.0227 120.718 4.34465 121.291 4.91772C121.864 5.4908 122.186 6.26805 122.186 7.0785C122.186 7.88895 121.864 8.6662 121.291 9.23928C120.718 9.81235 119.94 10.1343 119.13 10.1343V10.1332ZM138.752 8.5382L132.842 0H128.04L136.73 12.5444V21.1002H140.754V12.5444L149.441 0H144.654L138.752 8.5382ZM170.815 10.5413L170.915 10.3873C171.496 9.52264 171.866 8.53386 171.996 7.50027C172.126 6.46667 172.011 5.41704 171.662 4.43557C171.313 3.4541 170.739 2.56811 169.985 1.84867C169.232 1.12923 168.321 0.596371 167.324 0.292835C166.328 -0.010701 165.274 -0.0764641 164.247 0.100821C163.221 0.278106 162.25 0.693504 161.413 1.31369C160.576 1.93388 159.896 2.7416 159.428 3.67205C158.959 4.6025 158.715 5.62979 158.716 6.6715V6.9256H162.755C162.755 6.8409 162.738 6.7562 162.738 6.6715C162.739 5.97403 163.016 5.30528 163.509 4.81199C164.002 4.3187 164.671 4.04117 165.369 4.0403C165.718 4.02733 166.067 4.08638 166.393 4.21379C166.719 4.3412 167.016 4.53425 167.264 4.78096C167.512 5.02768 167.707 5.32279 167.837 5.64801C167.967 5.97322 168.028 6.32159 168.017 6.6715C167.878 7.40697 167.589 8.10596 167.168 8.7252C166.947 9.064 158.596 21.0991 158.596 21.0991H172.447V17.0764H166.285L170.815 10.5413ZM186.601 19.6053C186.519 19.4551 186.395 19.3315 186.245 19.2489C186.092 19.1654 185.92 19.1217 185.745 19.1217C185.57 19.1217 185.398 19.1654 185.244 19.2489C185.095 19.3315 184.971 19.4551 184.889 19.6053C184.806 19.7619 184.762 19.9366 184.762 20.114C184.762 20.2915 184.806 20.4662 184.889 20.6228C184.972 20.7731 185.095 20.8968 185.246 20.9792C185.399 21.0625 185.571 21.1061 185.745 21.1061C185.92 21.1061 186.092 21.0625 186.245 20.9792C186.395 20.8966 186.519 20.773 186.601 20.6228C186.684 20.4662 186.728 20.2915 186.728 20.114C186.728 19.9366 186.684 19.7619 186.601 19.6053Z" fill="#BEAF87"/>
</g>
</svg>
