<svg width="21" height="20" viewBox="0 0 21 20" fill="none" xmlns="http://www.w3.org/2000/svg">
<g id="SVG">
<g id="Group">
<path id="Vector" d="M10.03 10C11.963 10 13.53 8.433 13.53 6.5C13.53 4.567 11.963 3 10.03 3C8.09703 3 6.53003 4.567 6.53003 6.5C6.53003 8.433 8.09703 10 10.03 10Z" stroke="#252526"/>
<g id="Mask group">
<mask id="mask0_58_30" style="mask-type:luminance" maskUnits="userSpaceOnUse" x="0" y="0" width="21" height="20">
<g id="Group_2">
<path id="Vector_2" d="M10.03 20C15.5529 20 20.03 15.5228 20.03 10C20.03 4.47715 15.5529 0 10.03 0C4.50718 0 0.0300293 4.47715 0.0300293 10C0.0300293 15.5228 4.50718 20 10.03 20Z" fill="white"/>
</g>
</mask>
<g mask="url(#mask0_58_30)">
<g id="Group_3">
<path id="Vector_3" d="M10.03 27.2776C14.663 27.2776 18.4187 23.7706 18.4187 19.4445C18.4187 15.1183 14.663 11.6113 10.03 11.6113C5.39701 11.6113 1.64124 15.1183 1.64124 19.4445C1.64124 23.7706 5.39701 27.2776 10.03 27.2776Z" stroke="#252526"/>
<path id="Vector_4" d="M10.03 19.5C15.2767 19.5 19.53 15.2467 19.53 10C19.53 4.75329 15.2767 0.5 10.03 0.5C4.78332 0.5 0.530029 4.75329 0.530029 10C0.530029 15.2467 4.78332 19.5 10.03 19.5Z" stroke="#252526"/>
</g>
</g>
</g>
</g>
</g>
</svg>
