<svg width="56" height="56" viewBox="0 0 56 56" fill="none" xmlns="http://www.w3.org/2000/svg">
<mask id="mask0_287_5004" style="mask-type:alpha" maskUnits="userSpaceOnUse" x="0" y="0" width="56" height="56">
<rect width="56" height="56" fill="#D9D9D9"/>
</mask>
<g mask="url(#mask0_287_5004)">
<path d="M48.9998 30.3335H44.3332C43.6721 30.3335 43.1179 30.1099 42.6707 29.6627C42.2235 29.2154 41.9998 28.6613 41.9998 28.0002C41.9998 27.339 42.2235 26.7849 42.6707 26.3377C43.1179 25.8904 43.6721 25.6668 44.3332 25.6668H48.9998C49.6609 25.6668 50.2151 25.8904 50.6623 26.3377C51.1096 26.7849 51.3332 27.339 51.3332 28.0002C51.3332 28.6613 51.1096 29.2154 50.6623 29.6627C50.2151 30.1099 49.6609 30.3335 48.9998 30.3335ZM38.7332 39.2002C39.1221 38.6557 39.6276 38.3446 40.2498 38.2668C40.8721 38.189 41.4554 38.3446 41.9998 38.7335L45.7332 41.5335C46.2776 41.9224 46.5887 42.4279 46.6665 43.0502C46.7443 43.6724 46.5887 44.2557 46.1998 44.8002C45.811 45.3446 45.3054 45.6557 44.6832 45.7335C44.061 45.8113 43.4776 45.6557 42.9332 45.2668L39.1998 42.4668C38.6554 42.0779 38.3443 41.5724 38.2665 40.9502C38.1887 40.3279 38.3443 39.7446 38.7332 39.2002ZM45.7332 14.4668L41.9998 17.2668C41.4554 17.6557 40.8721 17.8113 40.2498 17.7335C39.6276 17.6557 39.1221 17.3446 38.7332 16.8002C38.3443 16.2557 38.1887 15.6724 38.2665 15.0502C38.3443 14.4279 38.6554 13.9224 39.1998 13.5335L42.9332 10.7335C43.4776 10.3446 44.061 10.189 44.6832 10.2668C45.3054 10.3446 45.811 10.6557 46.1998 11.2002C46.5887 11.7446 46.7443 12.3279 46.6665 12.9502C46.5887 13.5724 46.2776 14.0779 45.7332 14.4668ZM11.6665 35.0002H9.33317C8.04984 35.0002 6.95123 34.5432 6.03734 33.6293C5.12345 32.7154 4.6665 31.6168 4.6665 30.3335V25.6668C4.6665 24.3835 5.12345 23.2849 6.03734 22.371C6.95123 21.4571 8.04984 21.0002 9.33317 21.0002H18.6665L26.7748 16.1002C27.5526 15.6335 28.3401 15.6335 29.1373 16.1002C29.9346 16.5668 30.3332 17.2474 30.3332 18.1418V37.8585C30.3332 38.7529 29.9346 39.4335 29.1373 39.9002C28.3401 40.3668 27.5526 40.3668 26.7748 39.9002L18.6665 35.0002H16.3332V42.0002C16.3332 42.6613 16.1096 43.2154 15.6623 43.6627C15.2151 44.1099 14.6609 44.3335 13.9998 44.3335C13.3387 44.3335 12.7846 44.1099 12.3373 43.6627C11.8901 43.2154 11.6665 42.6613 11.6665 42.0002V35.0002ZM25.6665 33.7168V22.2835L19.9498 25.6668H9.33317V30.3335H19.9498L25.6665 33.7168ZM32.6665 35.8168V20.1835C33.7165 21.1168 34.5623 22.2543 35.204 23.596C35.8457 24.9377 36.1665 26.4057 36.1665 28.0002C36.1665 29.5946 35.8457 31.0627 35.204 32.4043C34.5623 33.746 33.7165 34.8835 32.6665 35.8168Z" fill="#1C1B1F"/>
</g>
</svg>
