<svg width="25" height="25" viewBox="0 0 25 25" fill="none" xmlns="http://www.w3.org/2000/svg">
<mask id="mask0_375_3163" style="mask-type:alpha" maskUnits="userSpaceOnUse" x="0" y="0" width="25" height="25">
<rect x="0.541504" y="0.918945" width="24" height="24" fill="#D9D9D9"/>
</mask>
<g mask="url(#mask0_375_3163)">
<path d="M9.5415 9.91895V7.91895H18.5415V9.91895H9.5415ZM9.5415 12.9189V10.9189H18.5415V12.9189H9.5415ZM12.5415 22.9189H6.5415C5.70817 22.9189 4.99984 22.6273 4.4165 22.0439C3.83317 21.4606 3.5415 20.7523 3.5415 19.9189V16.9189H6.5415V2.91895H21.5415V11.9439C21.2082 11.9106 20.8707 11.9231 20.529 11.9814C20.1873 12.0398 19.8582 12.1439 19.5415 12.2939V4.91895H8.5415V16.9189H14.5415L12.5415 18.9189H5.5415V19.9189C5.5415 20.2023 5.63734 20.4398 5.829 20.6314C6.02067 20.8231 6.25817 20.9189 6.5415 20.9189H12.5415V22.9189ZM14.5415 22.9189V19.8439L20.0665 14.3439C20.2165 14.1939 20.3832 14.0856 20.5665 14.0189C20.7498 13.9523 20.9332 13.9189 21.1165 13.9189C21.3165 13.9189 21.5082 13.9564 21.6915 14.0314C21.8748 14.1064 22.0415 14.2189 22.1915 14.3689L23.1165 15.2939C23.2498 15.4439 23.354 15.6106 23.429 15.7939C23.504 15.9773 23.5415 16.1606 23.5415 16.3439C23.5415 16.5273 23.5082 16.7148 23.4415 16.9064C23.3748 17.0981 23.2665 17.2689 23.1165 17.4189L17.6165 22.9189H14.5415ZM16.0415 21.4189H16.9915L20.0165 18.3689L19.5665 17.8939L19.0915 17.4439L16.0415 20.4689V21.4189ZM19.5665 17.8939L19.0915 17.4439L20.0165 18.3689L19.5665 17.8939Z" fill="white"/>
</g>
</svg>
