<svg width="17" height="17" viewBox="0 0 17 17" fill="none" xmlns="http://www.w3.org/2000/svg">
<g id="add_circle">
<mask id="mask0_150_4696" style="mask-type:alpha" maskUnits="userSpaceOnUse" x="0" y="0" width="17" height="17">
<rect id="Bounding box" width="17" height="17" fill="#D9D9D9"/>
</mask>
<g mask="url(#mask0_150_4696)">
<g id="add_circle_2">
<path d="M7.79163 12.0416H9.20829V9.20829H12.0416V7.79163H9.20829V4.95829H7.79163V7.79163H4.95829V9.20829H7.79163V12.0416ZM8.49996 15.5833C7.5201 15.5833 6.59927 15.3974 5.73746 15.0255C4.87565 14.6536 4.126 14.1489 3.4885 13.5114C2.851 12.8739 2.34631 12.1243 1.97444 11.2625C1.60256 10.4007 1.41663 9.47982 1.41663 8.49996C1.41663 7.5201 1.60256 6.59927 1.97444 5.73746C2.34631 4.87565 2.851 4.126 3.4885 3.4885C4.126 2.851 4.87565 2.34631 5.73746 1.97444C6.59927 1.60256 7.5201 1.41663 8.49996 1.41663C9.47982 1.41663 10.4007 1.60256 11.2625 1.97444C12.1243 2.34631 12.8739 2.851 13.5114 3.4885C14.1489 4.126 14.6536 4.87565 15.0255 5.73746C15.3974 6.59927 15.5833 7.5201 15.5833 8.49996C15.5833 9.47982 15.3974 10.4007 15.0255 11.2625C14.6536 12.1243 14.1489 12.8739 13.5114 13.5114C12.8739 14.1489 12.1243 14.6536 11.2625 15.0255C10.4007 15.3974 9.47982 15.5833 8.49996 15.5833ZM8.49996 14.1666C10.0819 14.1666 11.4218 13.6177 12.5198 12.5198C13.6177 11.4218 14.1666 10.0819 14.1666 8.49996C14.1666 6.91802 13.6177 5.57808 12.5198 4.48017C11.4218 3.38225 10.0819 2.83329 8.49996 2.83329C6.91802 2.83329 5.57808 3.38225 4.48017 4.48017C3.38225 5.57808 2.83329 6.91802 2.83329 8.49996C2.83329 10.0819 3.38225 11.4218 4.48017 12.5198C5.57808 13.6177 6.91802 14.1666 8.49996 14.1666Z" fill="white"/>
<path fill-rule="evenodd" clip-rule="evenodd" d="M8.49996 14.1666C10.0819 14.1666 11.4218 13.6177 12.5198 12.5198C13.6177 11.4218 14.1666 10.0819 14.1666 8.49996C14.1666 6.91802 13.6177 5.57808 12.5198 4.48017C11.4218 3.38225 10.0819 2.83329 8.49996 2.83329C6.91802 2.83329 5.57808 3.38225 4.48017 4.48017C3.38225 5.57808 2.83329 6.91802 2.83329 8.49996C2.83329 10.0819 3.38225 11.4218 4.48017 12.5198C5.57808 13.6177 6.91802 14.1666 8.49996 14.1666ZM9.20829 12.0416H7.79163V9.20829H4.95829V7.79163H7.79163V4.95829H9.20829V7.79163H12.0416V9.20829H9.20829V12.0416Z" fill="#252526"/>
</g>
</g>
</g>
</svg>
