<svg width="25" height="25" viewBox="0 0 25 25" fill="none" xmlns="http://www.w3.org/2000/svg">
<mask id="mask0_375_3157" style="mask-type:alpha" maskUnits="userSpaceOnUse" x="0" y="0" width="25" height="25">
<rect x="0.517334" y="0.177246" width="24" height="24" fill="#D9D9D9"/>
</mask>
<g mask="url(#mask0_375_3157)">
<path d="M9.91733 16.6772L12.5173 14.0772L15.1173 16.6772L16.5173 15.2772L13.9173 12.6772L16.5173 10.0772L15.1173 8.67725L12.5173 11.2772L9.91733 8.67725L8.51733 10.0772L11.1173 12.6772L8.51733 15.2772L9.91733 16.6772ZM7.51733 21.1772C6.96733 21.1772 6.4965 20.9814 6.10483 20.5897C5.71317 20.1981 5.51733 19.7272 5.51733 19.1772V6.17725H4.51733V4.17725H9.51733V3.17725H15.5173V4.17725H20.5173V6.17725H19.5173V19.1772C19.5173 19.7272 19.3215 20.1981 18.9298 20.5897C18.5382 20.9814 18.0673 21.1772 17.5173 21.1772H7.51733ZM17.5173 6.17725H7.51733V19.1772H17.5173V6.17725Z" fill="white"/>
</g>
</svg>
