<svg width="56" height="56" viewBox="0 0 56 56" fill="none" xmlns="http://www.w3.org/2000/svg">
<mask id="mask0_287_5001" style="mask-type:alpha" maskUnits="userSpaceOnUse" x="0" y="0" width="56" height="56">
<rect width="56" height="56" fill="#D9D9D9"/>
</mask>
<g mask="url(#mask0_287_5001)">
<path d="M7.5 53.3333C6.52778 53.3333 5.70139 52.9931 5.02083 52.3125C4.34028 51.6319 4 50.8056 4 49.8333C4 48.8611 4.34028 48.0347 5.02083 47.3542C5.70139 46.6736 6.52778 46.3333 7.5 46.3333H8.66667V20.6667C8.66667 19.3833 9.12361 18.2847 10.0375 17.3708C10.9514 16.4569 12.05 16 13.3333 16H46C46.6611 16 47.2153 16.2236 47.6625 16.6708C48.1097 17.1181 48.3333 17.6722 48.3333 18.3333C48.3333 18.9944 48.1097 19.5486 47.6625 19.9958C47.2153 20.4431 46.6611 20.6667 46 20.6667H13.3333V46.3333H23.8333C24.8056 46.3333 25.6319 46.6736 26.3125 47.3542C26.9931 48.0347 27.3333 48.8611 27.3333 49.8333C27.3333 50.8056 26.9931 51.6319 26.3125 52.3125C25.6319 52.9931 24.8056 53.3333 23.8333 53.3333H7.5ZM34.3333 53.3333C33.6722 53.3333 33.1181 53.1097 32.6708 52.6625C32.2236 52.2153 32 51.6611 32 51V27.6667C32 27.0056 32.2236 26.4514 32.6708 26.0042C33.1181 25.5569 33.6722 25.3333 34.3333 25.3333H48.3333C48.9944 25.3333 49.5486 25.5569 49.9958 26.0042C50.4431 26.4514 50.6667 27.0056 50.6667 27.6667V51C50.6667 51.6611 50.4431 52.2153 49.9958 52.6625C49.5486 53.1097 48.9944 53.3333 48.3333 53.3333H34.3333ZM36.6667 46.3333H46V30H36.6667V46.3333Z" fill="#1C1B1F"/>
</g>
</svg>
