<svg width="47" height="47" viewBox="0 0 47 47" fill="none" xmlns="http://www.w3.org/2000/svg">
<path d="M23.3333 46.6667C20.1056 46.6667 17.0722 46.0542 14.2333 44.8292C11.3944 43.6042 8.925 41.9417 6.825 39.8417C4.725 37.7417 3.0625 35.2722 1.8375 32.4333C0.6125 29.5944 0 26.5611 0 23.3333C0 20.1056 0.6125 17.0722 1.8375 14.2333C3.0625 11.3944 4.725 8.925 6.825 6.825C8.925 4.725 11.3944 3.0625 14.2333 1.8375C17.0722 0.6125 20.1056 0 23.3333 0C26.5611 0 29.5944 0.6125 32.4333 1.8375C35.2722 3.0625 37.7417 4.725 39.8417 6.825C41.9417 8.925 43.6042 11.3944 44.8292 14.2333C46.0542 17.0722 46.6667 20.1056 46.6667 23.3333V42C46.6667 43.2833 46.2097 44.3819 45.2958 45.2958C44.3819 46.2097 43.2833 46.6667 42 46.6667H23.3333ZM23.3333 42C28.5444 42 32.9583 40.1917 36.575 36.575C40.1917 32.9583 42 28.5444 42 23.3333C42 18.1222 40.1917 13.7083 36.575 10.0917C32.9583 6.475 28.5444 4.66667 23.3333 4.66667C18.1222 4.66667 13.7083 6.475 10.0917 10.0917C6.475 13.7083 4.66667 18.1222 4.66667 23.3333C4.66667 24.2278 4.725 25.1028 4.84167 25.9583C4.95833 26.8139 5.13333 27.65 5.36667 28.4667L12.4833 21.35C12.9111 20.9222 13.4264 20.6986 14.0292 20.6792C14.6319 20.6597 15.1667 20.8444 15.6333 21.2333L21.7 26.3083L29.3417 18.6667H28C27.3389 18.6667 26.7847 18.4431 26.3375 17.9958C25.8903 17.5486 25.6667 16.9944 25.6667 16.3333C25.6667 15.6722 25.8903 15.1181 26.3375 14.6708C26.7847 14.2236 27.3389 14 28 14H35C35.6611 14 36.2153 14.2236 36.6625 14.6708C37.1097 15.1181 37.3333 15.6722 37.3333 16.3333V23.3333C37.3333 23.9944 37.1097 24.5486 36.6625 24.9958C36.2153 25.4431 35.6611 25.6667 35 25.6667C34.3389 25.6667 33.7847 25.4431 33.3375 24.9958C32.8903 24.5486 32.6667 23.9944 32.6667 23.3333V21.9917L23.45 31.15C23.0222 31.5778 22.5069 31.8111 21.9042 31.85C21.3014 31.8889 20.7667 31.6944 20.3 31.2667L14.2917 26.1333L7.40833 33.0167C9.04167 35.7 11.2486 37.8681 14.0292 39.5208C16.8097 41.1736 19.9111 42 23.3333 42ZM40.8333 43.1667C41.4944 43.1667 42.0486 42.9431 42.4958 42.4958C42.9431 42.0486 43.1667 41.4944 43.1667 40.8333C43.1667 40.1722 42.9431 39.6181 42.4958 39.1708C42.0486 38.7236 41.4944 38.5 40.8333 38.5C40.1722 38.5 39.6181 38.7236 39.1708 39.1708C38.7236 39.6181 38.5 40.1722 38.5 40.8333C38.5 41.4944 38.7236 42.0486 39.1708 42.4958C39.6181 42.9431 40.1722 43.1667 40.8333 43.1667Z" fill="#1C1B1F"/>
</svg>
