<svg width="1056" height="201" viewBox="0 0 1056 201" fill="none" xmlns="http://www.w3.org/2000/svg">
<path d="M62.75 95.4062V103.875H31.5625V95.4062H62.75ZM51.8125 83.3125V116.438H42.625V83.3125H51.8125ZM114.75 75.5V80.75L97.4375 121H87.125L104.438 83.0938H82.25V75.5H114.75ZM143.875 74.9375H145.375V82.6875H144.812C142.625 82.6875 140.625 83 138.812 83.625C137.021 84.25 135.469 85.1771 134.156 86.4062C132.844 87.6146 131.833 89.1146 131.125 90.9062C130.438 92.6771 130.094 94.7188 130.094 97.0312V104.781C130.094 106.344 130.229 107.708 130.5 108.875C130.792 110.021 131.208 110.979 131.75 111.75C132.312 112.5 132.99 113.073 133.781 113.469C134.573 113.844 135.469 114.031 136.469 114.031C137.365 114.031 138.188 113.833 138.938 113.438C139.688 113.042 140.333 112.479 140.875 111.75C141.417 111.021 141.833 110.177 142.125 109.219C142.417 108.24 142.562 107.177 142.562 106.031C142.562 104.823 142.406 103.729 142.094 102.75C141.802 101.75 141.375 100.896 140.812 100.188C140.271 99.4792 139.604 98.9375 138.812 98.5625C138.021 98.1667 137.146 97.9688 136.188 97.9688C134.812 97.9688 133.625 98.2812 132.625 98.9062C131.625 99.5312 130.854 100.333 130.312 101.312C129.771 102.292 129.49 103.292 129.469 104.312L126.875 102.156C126.875 100.74 127.156 99.3438 127.719 97.9688C128.302 96.5729 129.125 95.3125 130.188 94.1875C131.25 93.0417 132.552 92.1354 134.094 91.4688C135.656 90.7812 137.438 90.4375 139.438 90.4375C141.542 90.4375 143.396 90.8438 145 91.6562C146.604 92.4479 147.948 93.5521 149.031 94.9688C150.135 96.3854 150.958 98.0417 151.5 99.9375C152.062 101.812 152.344 103.823 152.344 105.969C152.344 108.177 151.958 110.24 151.188 112.156C150.438 114.052 149.375 115.708 148 117.125C146.625 118.542 144.979 119.646 143.062 120.438C141.167 121.229 139.052 121.625 136.719 121.625C134.302 121.625 132.094 121.198 130.094 120.344C128.115 119.49 126.385 118.271 124.906 116.688C123.448 115.083 122.312 113.167 121.5 110.938C120.708 108.708 120.312 106.208 120.312 103.438V99.7812C120.312 95.9896 120.896 92.5729 122.062 89.5312C123.25 86.4896 124.896 83.8854 127 81.7188C129.125 79.5312 131.625 77.8542 134.5 76.6875C137.375 75.5208 140.5 74.9375 143.875 74.9375ZM173.219 86.6562V84.25C173.219 82.5208 173.594 80.9479 174.344 79.5312C175.094 78.1146 176.208 76.9792 177.688 76.125C179.188 75.2708 181.021 74.8438 183.188 74.8438C185.438 74.8438 187.302 75.2708 188.781 76.125C190.26 76.9792 191.365 78.1146 192.094 79.5312C192.844 80.9479 193.219 82.5208 193.219 84.25V86.6562C193.219 88.3438 192.844 89.8958 192.094 91.3125C191.365 92.7292 190.26 93.8646 188.781 94.7188C187.323 95.5729 185.49 96 183.281 96C181.073 96 179.219 95.5729 177.719 94.7188C176.24 93.8646 175.115 92.7292 174.344 91.3125C173.594 89.8958 173.219 88.3438 173.219 86.6562ZM179.594 84.25V86.6562C179.594 87.3438 179.729 87.9896 180 88.5938C180.271 89.1979 180.677 89.6875 181.219 90.0625C181.76 90.4375 182.438 90.625 183.25 90.625C184.083 90.625 184.76 90.4375 185.281 90.0625C185.802 89.6875 186.188 89.1979 186.438 88.5938C186.708 87.9896 186.844 87.3438 186.844 86.6562V84.25C186.844 83.5417 186.708 82.8854 186.438 82.2812C186.188 81.6562 185.792 81.1562 185.25 80.7812C184.708 80.4062 184.021 80.2188 183.188 80.2188C182.396 80.2188 181.729 80.4062 181.188 80.7812C180.667 81.1562 180.271 81.6562 180 82.2812C179.729 82.8854 179.594 83.5417 179.594 84.25ZM194.906 112.25V109.844C194.906 108.135 195.281 106.573 196.031 105.156C196.802 103.74 197.927 102.604 199.406 101.75C200.906 100.896 202.75 100.469 204.938 100.469C207.167 100.469 209.021 100.896 210.5 101.75C211.979 102.604 213.083 103.74 213.812 105.156C214.562 106.573 214.938 108.135 214.938 109.844V112.25C214.938 113.958 214.562 115.521 213.812 116.938C213.083 118.354 211.979 119.49 210.5 120.344C209.042 121.198 207.219 121.625 205.031 121.625C202.802 121.625 200.938 121.198 199.438 120.344C197.938 119.49 196.802 118.354 196.031 116.938C195.281 115.521 194.906 113.958 194.906 112.25ZM201.312 109.844V112.25C201.312 112.958 201.469 113.615 201.781 114.219C202.094 114.823 202.531 115.312 203.094 115.688C203.656 116.062 204.292 116.25 205 116.25C205.979 116.25 206.719 116.062 207.219 115.688C207.74 115.312 208.094 114.823 208.281 114.219C208.469 113.615 208.562 112.958 208.562 112.25V109.844C208.562 109.135 208.427 108.479 208.156 107.875C207.906 107.271 207.51 106.781 206.969 106.406C206.427 106.031 205.75 105.844 204.938 105.844C204.125 105.844 203.448 106.031 202.906 106.406C202.365 106.781 201.958 107.271 201.688 107.875C201.438 108.479 201.312 109.135 201.312 109.844ZM207.375 82.0312L185.156 117.594L180.5 115.188L202.719 79.625L207.375 82.0312Z" fill="#BEAF87"/>
<path d="M362.75 96.4062V104.875H331.562V96.4062H362.75ZM351.812 84.3125V117.438H342.625V84.3125H351.812ZM414.906 114.406V122H383.469V115.562L398.156 100C399.531 98.4167 400.625 97.0208 401.438 95.8125C402.271 94.6042 402.875 93.5104 403.25 92.5312C403.625 91.5312 403.812 90.6146 403.812 89.7812C403.812 88.4271 403.594 87.2812 403.156 86.3438C402.74 85.4062 402.125 84.6875 401.312 84.1875C400.5 83.6875 399.51 83.4375 398.344 83.4375C397.094 83.4375 396.021 83.7604 395.125 84.4062C394.229 85.0521 393.542 85.9479 393.062 87.0938C392.583 88.2188 392.344 89.5 392.344 90.9375H382.531C382.531 88.1667 383.198 85.6458 384.531 83.375C385.865 81.0833 387.729 79.2604 390.125 77.9062C392.521 76.5312 395.323 75.8438 398.531 75.8438C401.823 75.8438 404.583 76.3646 406.812 77.4062C409.042 78.4479 410.729 79.9375 411.875 81.875C413.021 83.8125 413.594 86.1458 413.594 88.875C413.594 90.4167 413.344 91.9062 412.844 93.3438C412.365 94.7812 411.667 96.2083 410.75 97.625C409.833 99.0417 408.729 100.49 407.438 101.969C406.146 103.427 404.688 104.969 403.062 106.594L396.188 114.406H414.906ZM451.531 109.5C451.531 112.375 450.854 114.792 449.5 116.75C448.146 118.708 446.292 120.177 443.938 121.156C441.604 122.135 438.938 122.625 435.938 122.625C432.958 122.625 430.281 122.135 427.906 121.156C425.552 120.177 423.688 118.708 422.312 116.75C420.938 114.792 420.25 112.375 420.25 109.5C420.25 107.542 420.635 105.781 421.406 104.219C422.198 102.656 423.292 101.323 424.688 100.219C426.104 99.1146 427.76 98.2708 429.656 97.6875C431.573 97.1042 433.646 96.8125 435.875 96.8125C438.875 96.8125 441.552 97.3333 443.906 98.375C446.281 99.3958 448.146 100.854 449.5 102.75C450.854 104.646 451.531 106.896 451.531 109.5ZM441.719 108.781C441.719 107.448 441.469 106.323 440.969 105.406C440.49 104.469 439.812 103.75 438.938 103.25C438.062 102.729 437.042 102.469 435.875 102.469C434.708 102.469 433.688 102.729 432.812 103.25C431.938 103.75 431.25 104.469 430.75 105.406C430.271 106.323 430.031 107.448 430.031 108.781C430.031 110.073 430.281 111.198 430.781 112.156C431.281 113.094 431.969 113.812 432.844 114.312C433.719 114.792 434.75 115.031 435.938 115.031C437.125 115.031 438.146 114.792 439 114.312C439.854 113.812 440.521 113.094 441 112.156C441.479 111.198 441.719 110.073 441.719 108.781ZM450.562 88.5938C450.562 90.9479 449.938 93.0208 448.688 94.8125C447.458 96.5833 445.74 97.9688 443.531 98.9688C441.323 99.9479 438.792 100.438 435.938 100.438C433.083 100.438 430.542 99.9479 428.312 98.9688C426.104 97.9688 424.365 96.5833 423.094 94.8125C421.844 93.0208 421.219 90.9479 421.219 88.5938C421.219 85.8438 421.844 83.5208 423.094 81.625C424.365 79.7292 426.104 78.2917 428.312 77.3125C430.521 76.3333 433.042 75.8438 435.875 75.8438C438.75 75.8438 441.292 76.3333 443.5 77.3125C445.708 78.2917 447.438 79.7292 448.688 81.625C449.938 83.5208 450.562 85.8438 450.562 88.5938ZM440.812 89.0938C440.812 87.9479 440.615 86.9583 440.219 86.125C439.844 85.2708 439.292 84.6146 438.562 84.1562C437.833 83.6771 436.938 83.4375 435.875 83.4375C434.854 83.4375 433.979 83.6667 433.25 84.125C432.521 84.5625 431.958 85.2083 431.562 86.0625C431.188 86.8958 431 87.9062 431 89.0938C431 90.2604 431.188 91.2812 431.562 92.1562C431.958 93.0104 432.521 93.6875 433.25 94.1875C434 94.6667 434.896 94.9062 435.938 94.9062C437 94.9062 437.885 94.6667 438.594 94.1875C439.323 93.6875 439.875 93.0104 440.25 92.1562C440.625 91.2812 440.812 90.2604 440.812 89.0938ZM473.219 87.6562V85.25C473.219 83.5208 473.594 81.9479 474.344 80.5312C475.094 79.1146 476.208 77.9792 477.688 77.125C479.188 76.2708 481.021 75.8438 483.188 75.8438C485.438 75.8438 487.302 76.2708 488.781 77.125C490.26 77.9792 491.365 79.1146 492.094 80.5312C492.844 81.9479 493.219 83.5208 493.219 85.25V87.6562C493.219 89.3438 492.844 90.8958 492.094 92.3125C491.365 93.7292 490.26 94.8646 488.781 95.7188C487.323 96.5729 485.49 97 483.281 97C481.073 97 479.219 96.5729 477.719 95.7188C476.24 94.8646 475.115 93.7292 474.344 92.3125C473.594 90.8958 473.219 89.3438 473.219 87.6562ZM479.594 85.25V87.6562C479.594 88.3438 479.729 88.9896 480 89.5938C480.271 90.1979 480.677 90.6875 481.219 91.0625C481.76 91.4375 482.438 91.625 483.25 91.625C484.083 91.625 484.76 91.4375 485.281 91.0625C485.802 90.6875 486.188 90.1979 486.438 89.5938C486.708 88.9896 486.844 88.3438 486.844 87.6562V85.25C486.844 84.5417 486.708 83.8854 486.438 83.2812C486.188 82.6562 485.792 82.1562 485.25 81.7812C484.708 81.4062 484.021 81.2188 483.188 81.2188C482.396 81.2188 481.729 81.4062 481.188 81.7812C480.667 82.1562 480.271 82.6562 480 83.2812C479.729 83.8854 479.594 84.5417 479.594 85.25ZM494.906 113.25V110.844C494.906 109.135 495.281 107.573 496.031 106.156C496.802 104.74 497.927 103.604 499.406 102.75C500.906 101.896 502.75 101.469 504.938 101.469C507.167 101.469 509.021 101.896 510.5 102.75C511.979 103.604 513.083 104.74 513.812 106.156C514.562 107.573 514.938 109.135 514.938 110.844V113.25C514.938 114.958 514.562 116.521 513.812 117.938C513.083 119.354 511.979 120.49 510.5 121.344C509.042 122.198 507.219 122.625 505.031 122.625C502.802 122.625 500.938 122.198 499.438 121.344C497.938 120.49 496.802 119.354 496.031 117.938C495.281 116.521 494.906 114.958 494.906 113.25ZM501.312 110.844V113.25C501.312 113.958 501.469 114.615 501.781 115.219C502.094 115.823 502.531 116.312 503.094 116.688C503.656 117.062 504.292 117.25 505 117.25C505.979 117.25 506.719 117.062 507.219 116.688C507.74 116.312 508.094 115.823 508.281 115.219C508.469 114.615 508.562 113.958 508.562 113.25V110.844C508.562 110.135 508.427 109.479 508.156 108.875C507.906 108.271 507.51 107.781 506.969 107.406C506.427 107.031 505.75 106.844 504.938 106.844C504.125 106.844 503.448 107.031 502.906 107.406C502.365 107.781 501.958 108.271 501.688 108.875C501.438 109.479 501.312 110.135 501.312 110.844ZM507.375 83.0312L485.156 118.594L480.5 116.188L502.719 80.625L507.375 83.0312Z" fill="#BEAF87"/>
<path d="M673.406 113.406V121H641.969V114.562L656.656 99C658.031 97.4167 659.125 96.0208 659.938 94.8125C660.771 93.6042 661.375 92.5104 661.75 91.5312C662.125 90.5312 662.312 89.6146 662.312 88.7812C662.312 87.4271 662.094 86.2812 661.656 85.3438C661.24 84.4062 660.625 83.6875 659.812 83.1875C659 82.6875 658.01 82.4375 656.844 82.4375C655.594 82.4375 654.521 82.7604 653.625 83.4062C652.729 84.0521 652.042 84.9479 651.562 86.0938C651.083 87.2188 650.844 88.5 650.844 89.9375H641.031C641.031 87.1667 641.698 84.6458 643.031 82.375C644.365 80.0833 646.229 78.2604 648.625 76.9062C651.021 75.5312 653.823 74.8438 657.031 74.8438C660.323 74.8438 663.083 75.3646 665.312 76.4062C667.542 77.4479 669.229 78.9375 670.375 80.875C671.521 82.8125 672.094 85.1458 672.094 87.875C672.094 89.4167 671.844 90.9062 671.344 92.3438C670.865 93.7812 670.167 95.2083 669.25 96.625C668.333 98.0417 667.229 99.4896 665.938 100.969C664.646 102.427 663.188 103.969 661.562 105.594L654.688 113.406H673.406ZM688.312 94.0938H693.281C694.698 94.0938 695.865 93.8438 696.781 93.3438C697.719 92.8438 698.406 92.1354 698.844 91.2188C699.302 90.3021 699.531 89.2292 699.531 88C699.531 86.9375 699.323 85.9896 698.906 85.1562C698.49 84.3229 697.854 83.6667 697 83.1875C696.167 82.6875 695.083 82.4375 693.75 82.4375C692.792 82.4375 691.875 82.6354 691 83.0312C690.146 83.4062 689.448 83.9583 688.906 84.6875C688.365 85.3958 688.094 86.25 688.094 87.25H678.312C678.312 84.7083 679 82.5104 680.375 80.6562C681.771 78.8021 683.615 77.375 685.906 76.375C688.219 75.3542 690.74 74.8438 693.469 74.8438C696.615 74.8438 699.375 75.3438 701.75 76.3438C704.146 77.3229 706 78.7812 707.312 80.7188C708.646 82.6354 709.312 85.0104 709.312 87.8438C709.312 89.3229 708.958 90.75 708.25 92.125C707.562 93.4792 706.573 94.6875 705.281 95.75C704.01 96.7917 702.49 97.625 700.719 98.25C698.969 98.8542 697.021 99.1562 694.875 99.1562H688.312V94.0938ZM688.312 101.438V96.4688H694.875C697.25 96.4688 699.375 96.7396 701.25 97.2812C703.125 97.8229 704.719 98.6042 706.031 99.625C707.344 100.646 708.344 101.885 709.031 103.344C709.719 104.802 710.062 106.427 710.062 108.219C710.062 110.344 709.646 112.24 708.812 113.906C707.979 115.573 706.812 116.979 705.312 118.125C703.812 119.271 702.052 120.146 700.031 120.75C698.01 121.333 695.823 121.625 693.469 121.625C691.573 121.625 689.688 121.365 687.812 120.844C685.938 120.323 684.24 119.531 682.719 118.469C681.198 117.385 679.979 116.021 679.062 114.375C678.146 112.708 677.688 110.729 677.688 108.438H687.469C687.469 109.5 687.74 110.458 688.281 111.312C688.844 112.146 689.604 112.812 690.562 113.312C691.542 113.792 692.604 114.031 693.75 114.031C695.125 114.031 696.292 113.781 697.25 113.281C698.229 112.76 698.969 112.052 699.469 111.156C699.99 110.26 700.25 109.229 700.25 108.062C700.25 106.479 699.969 105.208 699.406 104.25C698.865 103.271 698.073 102.562 697.031 102.125C695.99 101.667 694.74 101.438 693.281 101.438H688.312ZM731.719 86.6562V84.25C731.719 82.5208 732.094 80.9479 732.844 79.5312C733.594 78.1146 734.708 76.9792 736.188 76.125C737.688 75.2708 739.521 74.8438 741.688 74.8438C743.938 74.8438 745.802 75.2708 747.281 76.125C748.76 76.9792 749.865 78.1146 750.594 79.5312C751.344 80.9479 751.719 82.5208 751.719 84.25V86.6562C751.719 88.3438 751.344 89.8958 750.594 91.3125C749.865 92.7292 748.76 93.8646 747.281 94.7188C745.823 95.5729 743.99 96 741.781 96C739.573 96 737.719 95.5729 736.219 94.7188C734.74 93.8646 733.615 92.7292 732.844 91.3125C732.094 89.8958 731.719 88.3438 731.719 86.6562ZM738.094 84.25V86.6562C738.094 87.3438 738.229 87.9896 738.5 88.5938C738.771 89.1979 739.177 89.6875 739.719 90.0625C740.26 90.4375 740.938 90.625 741.75 90.625C742.583 90.625 743.26 90.4375 743.781 90.0625C744.302 89.6875 744.688 89.1979 744.938 88.5938C745.208 87.9896 745.344 87.3438 745.344 86.6562V84.25C745.344 83.5417 745.208 82.8854 744.938 82.2812C744.688 81.6562 744.292 81.1562 743.75 80.7812C743.208 80.4062 742.521 80.2188 741.688 80.2188C740.896 80.2188 740.229 80.4062 739.688 80.7812C739.167 81.1562 738.771 81.6562 738.5 82.2812C738.229 82.8854 738.094 83.5417 738.094 84.25ZM753.406 112.25V109.844C753.406 108.135 753.781 106.573 754.531 105.156C755.302 103.74 756.427 102.604 757.906 101.75C759.406 100.896 761.25 100.469 763.438 100.469C765.667 100.469 767.521 100.896 769 101.75C770.479 102.604 771.583 103.74 772.312 105.156C773.062 106.573 773.438 108.135 773.438 109.844V112.25C773.438 113.958 773.062 115.521 772.312 116.938C771.583 118.354 770.479 119.49 769 120.344C767.542 121.198 765.719 121.625 763.531 121.625C761.302 121.625 759.438 121.198 757.938 120.344C756.438 119.49 755.302 118.354 754.531 116.938C753.781 115.521 753.406 113.958 753.406 112.25ZM759.812 109.844V112.25C759.812 112.958 759.969 113.615 760.281 114.219C760.594 114.823 761.031 115.312 761.594 115.688C762.156 116.062 762.792 116.25 763.5 116.25C764.479 116.25 765.219 116.062 765.719 115.688C766.24 115.312 766.594 114.823 766.781 114.219C766.969 113.615 767.062 112.958 767.062 112.25V109.844C767.062 109.135 766.927 108.479 766.656 107.875C766.406 107.271 766.01 106.781 765.469 106.406C764.927 106.031 764.25 105.844 763.438 105.844C762.625 105.844 761.948 106.031 761.406 106.406C760.865 106.781 760.458 107.271 760.188 107.875C759.938 108.479 759.812 109.135 759.812 109.844ZM765.875 82.0312L743.656 117.594L739 115.188L761.219 79.625L765.875 82.0312Z" fill="#BEAF87"/>
<path d="M954.074 112.656H954.699C956.991 112.656 959.001 112.396 960.73 111.875C962.46 111.333 963.908 110.531 965.074 109.469C966.262 108.385 967.158 107.042 967.762 105.438C968.366 103.812 968.668 101.896 968.668 99.6875V90.6875C968.668 89.125 968.522 87.7708 968.23 86.625C967.96 85.4583 967.553 84.4896 967.012 83.7188C966.47 82.9479 965.835 82.375 965.105 82C964.376 81.625 963.574 81.4375 962.699 81.4375C961.783 81.4375 960.97 81.6771 960.262 82.1562C959.574 82.6354 958.98 83.2812 958.48 84.0938C957.98 84.9062 957.605 85.8229 957.355 86.8438C957.105 87.8646 956.98 88.9062 956.98 89.9688C956.98 91.1146 957.105 92.1875 957.355 93.1875C957.626 94.1875 958.012 95.0625 958.512 95.8125C959.012 96.5625 959.647 97.1562 960.418 97.5938C961.189 98.0104 962.085 98.2188 963.105 98.2188C964.126 98.2188 965.012 98.0312 965.762 97.6562C966.533 97.2812 967.178 96.7812 967.699 96.1562C968.241 95.5312 968.647 94.8542 968.918 94.125C969.189 93.375 969.324 92.6354 969.324 91.9062L972.324 93.9062C972.324 95.3021 972.012 96.6771 971.387 98.0312C970.783 99.3854 969.939 100.615 968.855 101.719C967.772 102.823 966.512 103.708 965.074 104.375C963.658 105.021 962.147 105.344 960.543 105.344C958.46 105.344 956.585 104.969 954.918 104.219C953.272 103.469 951.876 102.417 950.73 101.062C949.585 99.6875 948.71 98.0625 948.105 96.1875C947.501 94.3125 947.199 92.25 947.199 90C947.199 87.7917 947.574 85.7188 948.324 83.7812C949.074 81.8229 950.137 80.1042 951.512 78.625C952.887 77.1458 954.522 75.9792 956.418 75.125C958.335 74.2708 960.449 73.8438 962.762 73.8438C965.033 73.8438 967.116 74.2812 969.012 75.1562C970.908 76.0104 972.564 77.2396 973.98 78.8438C975.397 80.4479 976.491 82.3958 977.262 84.6875C978.053 86.9792 978.449 89.5625 978.449 92.4375V95.8125C978.449 98.8958 978.095 101.729 977.387 104.312C976.678 106.896 975.637 109.188 974.262 111.188C972.908 113.188 971.262 114.885 969.324 116.281C967.408 117.677 965.23 118.74 962.793 119.469C960.376 120.177 957.73 120.531 954.855 120.531H954.074V112.656ZM993.23 99.5L985.48 97.6562L988.137 74.5H1014.2V82.2188H996.137L995.043 91.8125C995.605 91.4792 996.491 91.1146 997.699 90.7188C998.908 90.3021 1000.26 90.0938 1001.76 90.0938C1003.99 90.0938 1005.97 90.4375 1007.7 91.125C1009.43 91.8125 1010.89 92.8125 1012.07 94.125C1013.28 95.4167 1014.19 97.0104 1014.79 98.9062C1015.42 100.802 1015.73 102.958 1015.73 105.375C1015.73 107.375 1015.42 109.292 1014.79 111.125C1014.17 112.938 1013.21 114.562 1011.92 116C1010.65 117.417 1009.03 118.542 1007.07 119.375C1005.12 120.208 1002.81 120.625 1000.17 120.625C998.168 120.625 996.23 120.323 994.355 119.719C992.48 119.115 990.793 118.24 989.293 117.094C987.814 115.927 986.637 114.51 985.762 112.844C984.908 111.177 984.47 109.302 984.449 107.219H994.199C994.303 108.427 994.605 109.469 995.105 110.344C995.605 111.198 996.283 111.865 997.137 112.344C997.991 112.802 998.98 113.031 1000.11 113.031C1001.19 113.031 1002.11 112.823 1002.86 112.406C1003.61 111.969 1004.2 111.375 1004.64 110.625C1005.1 109.875 1005.43 109 1005.64 108C1005.85 107 1005.95 105.927 1005.95 104.781C1005.95 103.594 1005.81 102.531 1005.54 101.594C1005.27 100.635 1004.86 99.8229 1004.29 99.1562C1003.73 98.4688 1003.01 97.9479 1002.14 97.5938C1001.28 97.2188 1000.25 97.0312 999.043 97.0312C997.46 97.0312 996.22 97.2917 995.324 97.8125C994.428 98.3333 993.73 98.8958 993.23 99.5ZM1052.54 93.1875V101.281C1052.54 104.615 1052.17 107.5 1051.42 109.938C1050.69 112.375 1049.63 114.385 1048.23 115.969C1046.86 117.552 1045.21 118.729 1043.29 119.5C1041.4 120.25 1039.29 120.625 1036.98 120.625C1035.13 120.625 1033.4 120.385 1031.79 119.906C1030.19 119.427 1028.74 118.688 1027.45 117.688C1026.18 116.667 1025.08 115.396 1024.17 113.875C1023.25 112.354 1022.54 110.542 1022.04 108.438C1021.56 106.333 1021.32 103.948 1021.32 101.281V93.1875C1021.32 89.8125 1021.69 86.9167 1022.42 84.5C1023.17 82.0833 1024.24 80.0833 1025.64 78.5C1027.03 76.9167 1028.68 75.75 1030.57 75C1032.49 74.25 1034.61 73.875 1036.92 73.875C1038.77 73.875 1040.49 74.1146 1042.07 74.5938C1043.68 75.0729 1045.13 75.8125 1046.42 76.8125C1047.71 77.8125 1048.8 79.0729 1049.7 80.5938C1050.62 82.1146 1051.31 83.9271 1051.79 86.0312C1052.29 88.1146 1052.54 90.5 1052.54 93.1875ZM1042.79 102.5V91.9062C1042.79 90.3438 1042.7 88.9896 1042.51 87.8438C1042.35 86.6771 1042.1 85.6875 1041.76 84.875C1041.45 84.0625 1041.05 83.4062 1040.57 82.9062C1040.1 82.4062 1039.54 82.0417 1038.92 81.8125C1038.31 81.5625 1037.65 81.4375 1036.92 81.4375C1036 81.4375 1035.18 81.625 1034.45 82C1033.72 82.375 1033.11 82.9688 1032.61 83.7812C1032.11 84.5729 1031.72 85.6458 1031.45 87C1031.2 88.3333 1031.07 89.9688 1031.07 91.9062V102.5C1031.07 104.062 1031.16 105.427 1031.32 106.594C1031.51 107.76 1031.76 108.76 1032.07 109.594C1032.41 110.406 1032.81 111.073 1033.29 111.594C1033.77 112.094 1034.32 112.458 1034.95 112.688C1035.57 112.917 1036.25 113.031 1036.98 113.031C1037.9 113.031 1038.71 112.854 1039.42 112.5C1040.13 112.125 1040.73 111.531 1041.23 110.719C1041.75 109.885 1042.14 108.792 1042.39 107.438C1042.66 106.083 1042.79 104.438 1042.79 102.5Z" fill="#BEAF87"/>
<path d="M132.915 177.484C119.606 183.09 105.074 185.158 90.73 183.487C76.3861 181.816 62.7184 176.463 51.0551 167.948C39.3919 159.432 30.1298 148.045 24.1691 134.891C18.2084 121.738 15.7517 107.266 17.0378 92.8829C18.3239 78.4994 23.309 64.6931 31.5087 52.8059C39.7085 40.9188 50.8439 31.355 63.8328 25.044C76.8217 18.733 91.2224 15.8895 105.635 16.7898C120.048 17.6901 133.983 22.3036 146.085 30.1819L155.529 16.5909C140.33 6.5578 122.686 0.852855 104.491 0.0884047C86.2955 -0.676046 68.2353 3.52886 52.2487 12.2518C36.2622 20.9748 22.9528 33.8865 13.749 49.6012C4.54521 65.3158 -0.205468 83.2402 0.00681507 101.451C0.219098 119.661 5.38633 137.47 14.9539 152.965C24.5215 168.461 38.1283 181.059 54.3139 189.407C70.4995 197.755 88.6528 201.538 106.826 200.349C124.998 199.161 142.504 193.046 157.465 182.662L148.028 169.064C143.31 172.411 138.243 175.233 132.915 177.464" fill="#BEAF87"/>
<path d="M433.379 177.484C420.071 183.09 405.539 185.158 391.195 183.487C376.851 181.816 363.183 176.463 351.52 167.948C339.857 159.432 330.595 148.045 324.634 134.891C318.673 121.738 316.216 107.266 317.503 92.8829C318.789 78.4994 323.774 64.6931 331.974 52.8059C340.173 40.9188 351.309 31.355 364.298 25.044C377.287 18.733 391.687 15.8895 406.1 16.7898C420.513 17.6901 434.448 22.3036 446.55 30.1819L455.994 16.5909C440.795 6.5578 423.151 0.852855 404.956 0.0884047C386.76 -0.676046 368.7 3.52886 352.714 12.2518C336.727 20.9748 323.418 33.8865 314.214 49.6012C305.01 65.3158 300.259 83.2402 300.472 101.451C300.684 119.661 305.851 137.47 315.419 152.965C324.986 168.461 338.593 181.059 354.779 189.407C370.964 197.755 389.118 201.538 407.29 200.349C425.463 199.161 442.969 193.046 457.93 182.662L448.493 169.064C443.774 172.411 438.708 175.233 433.379 177.464" fill="#BEAF87"/>
<path d="M733.844 177.484C720.536 183.09 706.004 185.158 691.66 183.487C677.316 181.816 663.648 176.463 651.985 167.948C640.322 159.432 631.06 148.045 625.099 134.891C619.138 121.738 616.681 107.266 617.967 92.8829C619.254 78.4994 624.239 64.6931 632.438 52.8059C640.638 40.9188 651.774 31.355 664.762 25.044C677.751 18.733 692.152 15.8895 706.565 16.7898C720.978 17.6901 734.913 22.3036 747.015 30.1819L756.459 16.5909C741.26 6.5578 723.616 0.852855 705.421 0.0884047C687.225 -0.676046 669.165 3.52886 653.178 12.2518C637.192 20.9748 623.882 33.8865 614.679 49.6012C605.475 65.3158 600.724 83.2402 600.937 101.451C601.149 119.661 606.316 137.47 615.884 152.965C625.451 168.461 639.058 181.059 655.244 189.407C671.429 197.755 689.582 201.538 707.755 200.349C725.928 199.161 743.434 193.046 758.395 182.662L748.958 169.064C744.239 172.411 739.173 175.233 733.844 177.464" fill="#BEAF87"/>
<path d="M1030.91 177.484C1017.61 183.09 1003.07 185.158 988.73 183.487C974.386 181.816 960.718 176.463 949.055 167.948C937.392 159.432 928.13 148.045 922.169 134.891C916.208 121.738 913.752 107.266 915.038 92.8829C916.324 78.4994 921.309 64.6931 929.509 52.8059C937.708 40.9188 948.844 31.355 961.833 25.044C974.822 18.733 989.222 15.8895 1003.64 16.7898C1018.05 17.6901 1031.98 22.3036 1044.09 30.1819L1053.53 16.5909C1038.33 6.5578 1020.69 0.852855 1002.49 0.0884047C984.295 -0.676046 966.235 3.52886 950.249 12.2518C934.262 20.9748 920.953 33.8865 911.749 49.6012C902.545 65.3158 897.795 83.2402 898.007 101.451C898.219 119.661 903.386 137.47 912.954 152.965C922.522 168.461 936.128 181.059 952.314 189.407C968.499 197.755 986.653 201.538 1004.83 200.349C1023 199.161 1040.5 193.046 1055.46 182.662L1046.03 169.064C1041.31 172.411 1036.24 175.233 1030.91 177.464" fill="#BEAF87"/>
</svg>
