<svg width="56" height="56" viewBox="0 0 56 56" fill="none" xmlns="http://www.w3.org/2000/svg">
<mask id="mask0_287_4998" style="mask-type:alpha" maskUnits="userSpaceOnUse" x="0" y="0" width="56" height="56">
<rect width="56" height="56" fill="#D9D9D9"/>
</mask>
<g mask="url(#mask0_287_4998)">
<path d="M14.1168 41.475C13.339 41.0472 12.7362 40.4736 12.3085 39.7542C11.8807 39.0347 11.6668 38.2278 11.6668 37.3333V26.1333L6.0668 23.0417C5.63902 22.8083 5.32791 22.5167 5.13346 22.1667C4.93902 21.8167 4.8418 21.4278 4.8418 21C4.8418 20.5722 4.93902 20.1833 5.13346 19.8333C5.32791 19.4833 5.63902 19.1917 6.0668 18.9583L25.7835 8.225C26.1335 8.03055 26.4932 7.88472 26.8626 7.7875C27.2321 7.69027 27.6112 7.64166 28.0001 7.64166C28.389 7.64166 28.7682 7.69027 29.1376 7.7875C29.5071 7.88472 29.8668 8.03055 30.2168 8.225L52.4418 20.3583C52.8307 20.5528 53.1321 20.8347 53.346 21.2042C53.5599 21.5736 53.6668 21.9722 53.6668 22.4V37.3333C53.6668 37.9944 53.4432 38.5486 52.996 38.9958C52.5487 39.4431 51.9946 39.6667 51.3335 39.6667C50.6724 39.6667 50.1182 39.4431 49.671 38.9958C49.2237 38.5486 49.0001 37.9944 49.0001 37.3333V23.5667L44.3335 26.1333V37.3333C44.3335 38.2278 44.1196 39.0347 43.6918 39.7542C43.264 40.4736 42.6612 41.0472 41.8835 41.475L30.2168 47.775C29.8668 47.9694 29.5071 48.1153 29.1376 48.2125C28.7682 48.3097 28.389 48.3583 28.0001 48.3583C27.6112 48.3583 27.2321 48.3097 26.8626 48.2125C26.4932 48.1153 26.1335 47.9694 25.7835 47.775L14.1168 41.475ZM28.0001 29.6333L43.9835 21L28.0001 12.3667L12.0168 21L28.0001 29.6333ZM28.0001 43.6917L39.6668 37.3917V28.5833L30.2751 33.775C29.9251 33.9694 29.5557 34.1153 29.1668 34.2125C28.7779 34.3097 28.389 34.3583 28.0001 34.3583C27.6112 34.3583 27.2224 34.3097 26.8335 34.2125C26.4446 34.1153 26.0751 33.9694 25.7251 33.775L16.3335 28.5833V37.3917L28.0001 43.6917Z" fill="#1C1B1F"/>
</g>
</svg>
